<?xml version="1.0" standalone="no"?><!DOCTYPE svg PUBLIC "-//W3C//DTD SVG 1.1//EN" "http://www.w3.org/Graphics/SVG/1.1/DTD/svg11.dtd"><svg t="1707666998261" class="icon" viewBox="0 0 1024 1024" version="1.1" xmlns="http://www.w3.org/2000/svg" p-id="4228" xmlns:xlink="http://www.w3.org/1999/xlink" width="200" height="200"><path d="M320 886.613333c-22.186667 9.386667-48.64-0.853333-58.026667-23.04L37.546667 325.12c-9.386667-22.186667 0.853333-48.64 23.04-58.026667l312.32-129.706666c22.186667-9.386667 48.64 0.853333 58.026666 23.04l61.44 145.92 11.946667-44.373334-46.08-111.786666c-16.213333-36.693333-57.173333-53.76-93.866667-39.253334L51.2 241.493333C14.506667 256-2.56 298.666667 11.946667 335.36l224.426666 538.453333c14.506667 36.693333 58.026667 53.76 93.866667 39.253334l119.466667-49.493334c-11.946667-4.266667-22.186667-9.386667-31.573334-17.066666l-98.133333 40.106666z" fill="#3ca5db" p-id="4229"></path><path d="M415.573333 577.706667l0.853334-5.12s-23.04 0.853333-40.106667-14.506667c-7.68-5.973333-13.653333-17.066667-18.773333-27.306667 10.24 12.8 29.866667 16.213333 44.373333 9.386667 17.92-7.68 27.306667-28.16 18.773333-47.786667-7.68-17.92-28.16-27.306667-47.786666-18.773333-14.506667 5.973333-25.6 21.333333-23.893334 36.693333-0.853333-5.12-1.706667-9.386667-3.413333-14.506666 13.653333-9.386667 18.773333-30.72 12.8-46.08-7.68-17.92-28.16-27.306667-47.786667-18.773334-17.92 7.68-27.306667 28.16-18.773333 47.786667 5.973333 17.066667 25.6 27.306667 41.813333 23.893333 3.413333 3.413333 5.12 7.68 8.533334 12.8-10.24-11.946667-28.16-14.506667-43.52-8.533333-17.92 7.68-27.306667 28.16-18.773334 47.786667 7.68 17.92 28.16 27.306667 47.786667 18.773333 14.506667-5.973333 25.6-22.186667 23.893333-38.4 4.266667 10.24 5.973333 22.186667 5.973334 31.573333 0 23.04-17.92 38.4-17.92 38.4l3.413333 3.413334c40.106667-36.693333 72.533333-30.72 72.533333-30.72M127.146667 333.653333c5.12-1.706667 8.533333-5.12 10.24-10.24 1.706667-5.12 1.706667-10.24 0-14.506666-4.266667-9.386667-16.213333-14.506667-25.6-10.24-7.68 3.413333-13.653333 11.946667-12.8 19.626666-0.853333-3.413333-0.853333-5.12-1.706667-7.68 7.68-5.12 10.24-17.066667 5.973333-25.6-4.266667-9.386667-16.213333-14.506667-25.6-10.24s-14.506667 16.213333-10.24 25.6c4.266667 8.533333 13.653333 14.506667 23.04 12.8 0.853333 1.706667 3.413333 4.266667 4.266667 5.973334-5.12-5.12-16.213333-7.68-23.04-4.266667-9.386667 4.266667-14.506667 16.213333-10.24 25.6s16.213333 14.506667 25.6 10.24c8.533333-3.413333 13.653333-12.8 12.8-21.333333 1.706667 5.12 3.413333 11.946667 3.413333 17.066666 0 12.8-9.386667 21.333333-9.386666 21.333334l1.706666 0.853333c21.333333-18.773333 38.4-16.213333 38.4-16.213333l0.853334-1.706667s-12.8 0.853333-21.333334-7.68c-4.266667-3.413333-7.68-8.533333-9.386666-14.506667 5.12 5.973333 14.506667 8.533333 23.04 5.12m847.36-106.666666L646.826667 140.8c-30.72-8.533333-62.293333 10.24-70.826667 40.96l-40.96 155.306667-11.946667 44.373333-95.573333 363.52c-8.533333 30.72 10.24 62.293333 40.96 70.826667l11.946667 3.413333 44.373333 11.946667 271.36 71.68c30.72 8.533333 62.293333-10.24 70.826667-40.96L1015.466667 298.666667c8.533333-31.573333-11.093333-63.146667-40.96-71.68m-374.613334-10.24c0.853333-7.68 4.266667-14.506667 10.24-19.626667 8.533333-5.973333 17.066667-11.946667 26.453334-16.213333 5.12-1.706667 10.24-4.266667 16.213333-5.973334h0.853333c8.533333 10.24 17.066667 21.333333 22.186667 32.426667 0.853333 1.706667 1.706667 5.12 3.413333 7.68 3.413333 5.973333 1.706667 12.8 0 18.773333-0.853333 1.706667-1.706667 5.12-3.413333 7.68-5.973333 7.68-14.506667 11.946667-25.6 7.68-5.973333-1.706667-10.24-5.973333-12.8-11.946666 0 4.266667 0.853333 7.68 1.706667 11.946666 4.266667 12.8 13.653333 19.626667 13.653333 19.626667l-1.706667 1.706667s-12.8-13.653333-43.52-11.946667l-0.853333-0.853333s11.946667-1.706667 22.186667-11.946667c1.706667-1.706667 5.12-5.12 5.973333-8.533333-1.706667 0.853333-4.266667 1.706667-5.12 3.413333-15.36 4.266667-32.426667-8.533333-29.866667-23.893333m117.76 359.253333c7.68 23.893333 25.6 39.253333 25.6 39.253333l-4.266666 1.706667s-23.893333-26.453333-81.066667-21.333333l-0.853333-4.266667s22.186667-4.266667 40.96-21.333333c5.12-4.266667 9.386667-9.386667 12.8-16.213334-3.413333 1.706667-7.68 4.266667-10.24 5.12-28.16 10.24-58.88-13.653333-56.32-44.373333 1.706667-14.506667 7.68-27.306667 19.626666-36.693333 14.506667-11.946667 31.573333-21.333333 48.64-29.866667 9.386667-4.266667 19.626667-8.533333 30.72-12.8 0.853333 0 1.706667-0.853333 3.413334 0.853333 17.066667 18.773333 31.573333 39.253333 41.813333 62.293334 1.706667 4.266667 4.266667 9.386667 5.973333 13.653333 5.12 11.946667 4.266667 23.893333 0.853334 36.693333-0.853333 5.12-3.413333 9.386667-5.973334 12.8-11.946667 13.653333-27.306667 21.333333-48.64 14.506667-11.946667-4.266667-18.773333-11.946667-23.893333-22.186667-2.56 8.533333-0.853333 16.213333 0.853333 22.186667m125.44 250.026667c-0.853333 7.68-4.266667 14.506667-10.24 19.626666-8.533333 5.973333-17.066667 11.946667-25.6 16.213334-5.12 1.706667-10.24 4.266667-16.213333 5.973333h-0.853333c-8.533333-10.24-17.066667-21.333333-22.186667-32.426667-0.853333-1.706667-1.706667-5.12-3.413333-7.68-3.413333-5.973333-1.706667-12.8 0-18.773333 0.853333-1.706667 1.706667-5.12 3.413333-7.68 5.973333-7.68 14.506667-11.946667 25.6-7.68 5.973333 1.706667 10.24 5.973333 12.8 11.946667 0-4.266667-0.853333-7.68-1.706667-11.946667-4.266667-12.8-13.653333-19.626667-13.653333-19.626667l1.706667-1.706666s12.8 13.653333 43.52 11.946666l0.853333 1.706667s-11.946667 1.706667-21.333333 11.946667c-1.706667 1.706667-5.12 5.12-7.68 8.533333 1.706667-0.853333 4.266667-1.706667 5.12-3.413333 15.36-5.12 32.426667 7.68 29.866666 23.04" fill="#3ca5db" p-id="4230"></path></svg>