<?xml version="1.0" standalone="no"?><!DOCTYPE svg PUBLIC "-//W3C//DTD SVG 1.1//EN" "http://www.w3.org/Graphics/SVG/1.1/DTD/svg11.dtd"><svg t="1707754033619" class="icon" viewBox="0 0 1024 1024" version="1.1" xmlns="http://www.w3.org/2000/svg" p-id="9336" xmlns:xlink="http://www.w3.org/1999/xlink" width="200" height="200"><path d="M450.56 758.784C407.552 827.392 328.704 880.64 235.52 880.64c-132.096 1.024-235.52-98.304-235.52-237.568 0-134.144 101.376-239.616 237.568-239.616 34.816 0 73.728 13.312 101.376 26.624 0 0 6.144 2.048 8.192-2.048 3.072-6.144-3.072-10.24-3.072-10.24-40.96-38.912-72.704-98.304-72.704-168.96C270.336 114.688 376.832 4.096 512 4.096c134.144 0 241.664 109.568 241.664 242.688 0 70.656-31.744 131.072-72.704 169.984 0 0-7.168 5.12-3.072 10.24 2.048 6.144 8.192 3.072 8.192 3.072 26.624-14.336 66.56-26.624 99.328-26.624 139.264 0 238.592 105.472 238.592 239.616 0 139.264-103.424 238.592-235.52 238.592-88.064 0-166.912-47.104-215.04-121.856-10.24-16.384-9.216-25.6-18.432-25.6-8.192 0-7.168 18.432-7.168 21.504 8.192 121.856 50.176 186.368 116.736 241.664 14.336 11.264 5.12 23.552 0 23.552H361.472c-6.144 0-14.336-11.264-1.024-23.552 65.536-55.296 109.568-119.808 116.736-241.664 0-2.048 1.024-21.504-7.168-21.504-9.216-1.024-8.192 8.192-19.456 24.576z" p-id="9337"></path></svg>