<?xml version="1.0" standalone="no"?><!DOCTYPE svg PUBLIC "-//W3C//DTD SVG 1.1//EN" "http://www.w3.org/Graphics/SVG/1.1/DTD/svg11.dtd"><svg t="1707753951884" class="icon" viewBox="0 0 1025 1024" version="1.1" xmlns="http://www.w3.org/2000/svg" p-id="6215" xmlns:xlink="http://www.w3.org/1999/xlink" width="200.1953125" height="200"><path d="M514.472653 957.44c4.096-9.216 10.24-18.432 15.36-28.672 6.144-10.24 12.288-18.432 18.432-27.648 57.344-72.704 125.952-134.144 202.752-186.368 39.936-25.6 79.872-51.2 119.808-77.824 35.84-23.552 68.608-51.2 95.232-84.992 34.816-43.008 55.296-92.16 58.368-147.456 3.072-34.816 0-69.632-7.168-104.448-10.24-50.176-27.648-97.28-59.392-136.192-58.368-71.68-133.12-102.4-224.256-90.112-52.224 7.168-97.28 30.72-136.192 65.536-36.864 32.768-63.488 71.68-82.944 116.736l-3.072 5.12c-5.12-11.264-10.24-22.528-16.384-32.768-27.648-51.2-62.464-94.208-112.64-123.904-83.968-50.176-168.96-51.2-252.928 1.024-51.2 31.744-83.968 79.872-105.472 135.168-15.36 39.936-22.528 81.92-23.552 124.928-3.072 64.512 10.24 124.928 49.152 178.176 23.552 32.768 52.224 59.392 83.968 83.968 37.888 28.672 78.848 52.224 118.784 76.8 48.128 28.672 95.232 59.392 136.192 98.304 51.2 45.056 97.28 93.184 125.952 154.624z m0 0" p-id="6216"></path></svg>