<?xml version="1.0" standalone="no"?><!DOCTYPE svg PUBLIC "-//W3C//DTD SVG 1.1//EN" "http://www.w3.org/Graphics/SVG/1.1/DTD/svg11.dtd"><svg t="1707753974350" class="icon" viewBox="0 0 1024 1024" version="1.1" xmlns="http://www.w3.org/2000/svg" p-id="6365" xmlns:xlink="http://www.w3.org/1999/xlink" width="200" height="200"><path d="M723.965423 222.205889C616.446445 147.454599 523.26333 43.007591 513.023427 0c-13.311874 44.031582-96.255086 145.406619-212.989976 220.157908C179.202598 296.957179-1.019689 369.660488 0.004301 562.170659 2.052281 901.111439 353.280945 977.91071 496.639583 711.673239c-4.095961 89.087154-27.647737 252.925597-110.59095 272.381412-7.167932 2.047981-15.359854 11.263893-7.167932 16.383845 57.343455 35.83966 235.517763 21.503796 262.14151 16.383844 32.767689-7.167932 15.359854-22.527786 13.311874-23.551776-63.487397-33.791679-118.782872-148.478589-123.902823-275.453383 141.310658 248.829636 491.515331 182.270268 493.563311-153.598541 1.02399-192.510171-181.246278-260.093529-300.02915-342.012751z m0 0" p-id="6366"></path></svg>